<?xml version="1.0" encoding="UTF-8" standalone="no"?>
<svg
   xmlns:dc="http://purl.org/dc/elements/1.1/"
   xmlns:cc="http://creativecommons.org/ns#"
   xmlns:rdf="http://www.w3.org/1999/02/22-rdf-syntax-ns#"
   xmlns:svg="http://www.w3.org/2000/svg"
   xmlns="http://www.w3.org/2000/svg"
   xmlns:sodipodi="http://sodipodi.sourceforge.net/DTD/sodipodi-0.dtd"
   xmlns:inkscape="http://www.inkscape.org/namespaces/inkscape"
   version="1.1"
   x="0px"
   y="0px"
   viewBox="0 0 90.000543 67.814002"
   enable-background="new 0 0 100 100"
   xml:space="preserve"
   id="svg10"
   sodipodi:docname="close.svg"
   inkscape:version="1.0.1 (3bc2e813f5, 2020-09-07)"
   width="90.000542"
   height="67.814003"><metadata
     id="metadata16"><rdf:RDF><cc:Work
         rdf:about=""><dc:format>image/svg+xml</dc:format><dc:type
           rdf:resource="http://purl.org/dc/dcmitype/StillImage" /><dc:title /></cc:Work></rdf:RDF></metadata><defs
     id="defs14" /><sodipodi:namedview
     pagecolor="#ffffff"
     bordercolor="#666666"
     borderopacity="1"
     objecttolerance="10"
     gridtolerance="10"
     guidetolerance="10"
     inkscape:pageopacity="0"
     inkscape:pageshadow="2"
     inkscape:window-width="1920"
     inkscape:window-height="1048"
     id="namedview12"
     showgrid="false"
     inkscape:zoom="6.7769114"
     inkscape:cx="42.722626"
     inkscape:cy="38.104401"
     inkscape:window-x="0"
     inkscape:window-y="0"
     inkscape:window-maximized="1"
     inkscape:current-layer="svg10"
     inkscape:document-rotation="0" /><path
     id="path2-7"
     d="m 5.9863281,32.728516 c -0.394,0.736 -0.394,1.621422 0,2.357422 0.108,0.201999 0.23275,0.391796 0.34375,0.591796 L 1.25,38.611328 c -1.19599996,0.69 -1.6040625,2.218063 -0.9140625,3.414063 0.691,1.197 2.2210625,1.606015 3.4140625,0.916015 l 5.2421875,-3.027344 c 1.2179995,1.711 2.5397495,3.327079 3.9687505,4.830079 L 8.53125,49.173828 c -0.977,0.976 -0.977,2.557203 0,3.533203 0.977,0.977 2.559156,0.977 3.535156,0 l 4.552735,-4.550781 c 1.577,1.322 3.237515,2.533141 4.978515,3.619141 l -3.298828,5.71289 c -0.69,1.196 -0.280937,2.726016 0.914063,3.416016 1.193,0.689 2.726015,0.279984 3.416015,-0.916016 l 3.355469,-5.8125 c 1.83,0.872 3.722062,1.616469 5.664063,2.230469 l -1.765626,6.587891 c -0.356999,1.333 0.434579,2.7055 1.767579,3.0625 1.33,0.353 2.705453,-0.433579 3.064453,-1.767579 l 1.777344,-6.636718 c 1.967999,0.385 3.974812,0.637953 6.007812,0.751953 v 6.910156 c 0,1.381 1.119,2.5 2.5,2.5 1.381,0 2.5,-1.119 2.5,-2.5 v -6.910156 c 2.034,-0.114 4.040766,-0.366953 6.009766,-0.751953 l 1.777343,6.636718 c 0.357,1.334001 1.7315,2.124579 3.0625,1.767579 1.334,-0.357 2.124578,-1.7285 1.767579,-3.0625 l -1.765626,-6.585938 c 1.944001,-0.615 3.833063,-1.360422 5.664063,-2.232422 l 3.357422,5.814453 c 0.69,1.196 2.219062,1.606063 3.414062,0.914063 1.196,-0.69 1.606016,-2.218063 0.916016,-3.414063 l -3.298828,-5.71289 c 1.74,-1.087 3.401516,-2.297141 4.978515,-3.619141 l 4.550782,4.552735 c 0.976,0.976999 2.560156,0.976999 3.535156,0 0.977,-0.976 0.977,-2.559157 0,-3.535157 l -4.427734,-4.429687 c 1.427,-1.503 2.75075,-3.117125 3.96875,-4.828125 L 86.25,42.941406 c 1.198,0.693 2.727016,0.279985 3.416016,-0.916015 0.69,-1.196 0.279984,-2.724063 -0.916016,-3.414063 l -5.080078,-2.933594 c 0.111,-0.2 0.23575,-0.389796 0.34375,-0.591796 0.393,-0.736 0.393,-1.622422 0,-2.357422 -0.743533,-1.348319 -3.4944,-2.062235 -5.064453,1.177734 C 71.938219,46.02025 59.052,53.488281 45,53.488281 30.95,53.488281 18.064734,46.01925 11.052734,33.90625 9.402191,30.864283 6.932636,31.210979 5.9863281,32.728516 Z"
     sodipodi:nodetypes="cccccccccccccccccccccccsssccccccccccccccccccccccccscc"
     style="fill:#727272;fill-opacity:1" /></svg>
