<?xml version="1.0" encoding="UTF-8" standalone="no"?>
<svg
   xmlns:dc="http://purl.org/dc/elements/1.1/"
   xmlns:cc="http://creativecommons.org/ns#"
   xmlns:rdf="http://www.w3.org/1999/02/22-rdf-syntax-ns#"
   xmlns:svg="http://www.w3.org/2000/svg"
   xmlns="http://www.w3.org/2000/svg"
   xmlns:sodipodi="http://sodipodi.sourceforge.net/DTD/sodipodi-0.dtd"
   xmlns:inkscape="http://www.inkscape.org/namespaces/inkscape"
   version="1.1"
   x="0px"
   y="0px"
   viewBox="0 0 90.000543 67.814002"
   enable-background="new 0 0 100 100"
   xml:space="preserve"
   id="svg10"
   sodipodi:docname="open.svg"
   inkscape:version="1.0.1 (3bc2e813f5, 2020-09-07)"
   width="90.000542"
   height="67.814003"><metadata
     id="metadata16"><rdf:RDF><cc:Work
         rdf:about=""><dc:format>image/svg+xml</dc:format><dc:type
           rdf:resource="http://purl.org/dc/dcmitype/StillImage" /><dc:title /></cc:Work></rdf:RDF></metadata><defs
     id="defs14" /><sodipodi:namedview
     pagecolor="#ffffff"
     bordercolor="#666666"
     borderopacity="1"
     objecttolerance="10"
     gridtolerance="10"
     guidetolerance="10"
     inkscape:pageopacity="0"
     inkscape:pageshadow="2"
     inkscape:window-width="1920"
     inkscape:window-height="1048"
     id="namedview12"
     showgrid="false"
     inkscape:zoom="9.584"
     inkscape:cx="38.934282"
     inkscape:cy="38.123862"
     inkscape:window-x="0"
     inkscape:window-y="402"
     inkscape:window-maximized="1"
     inkscape:current-layer="svg10"
     inkscape:document-rotation="0" /><path
     style="fill:#fffdfd;stroke:none;stroke-width:1px;stroke-linecap:butt;stroke-linejoin:miter;stroke-opacity:1;fill-opacity:1"
     d="m 8.09979,34.263713 c 0,0 10.720704,-22.556958 36.822556,-22.233562 26.101853,0.323396 36.788953,22.056462 36.788953,22.056462 0,0 -13.4027,22.826499 -35.669635,22.063515 C 23.774728,55.387143 11.348775,42.573088 8.09979,34.263713 Z"
     id="path831" /><path
     d="m 86.25027,24.873 -5.241,3.026 c -1.218,-1.711 -2.54,-3.327 -3.969,-4.83 l 4.429,-4.428 c 0.977,-0.976 0.977,-2.559 0,-3.535 -0.977,-0.977 -2.559,-0.977 -3.535,0 l -4.552,4.551 c -1.577,-1.322 -3.238,-2.532 -4.979,-3.618 l 3.299,-5.714 c 0.69,-1.196 0.28,-2.725 -0.915,-3.415 -1.193,-0.689 -2.725,-0.281 -3.415,0.915 l -3.356,5.814 c -1.83,-0.872 -3.722,-1.618 -5.664,-2.232 l 1.765,-6.588 c 0.357,-1.333 -0.435,-2.705 -1.768,-3.062 -1.33,-0.353 -2.704,0.434 -3.063,1.768 l -1.778,6.636 c -1.968,-0.385 -3.975,-0.637 -6.008,-0.751 V 2.5 c 0,-1.381 -1.119,-2.5 -2.5,-2.5 -1.381,0 -2.5,1.119 -2.5,2.5 v 6.91 c -2.034,0.114 -4.04,0.366 -6.009,0.751 l -1.778,-6.636 c -0.357,-1.334 -1.731,-2.125 -3.062,-1.768 -1.334,0.357 -2.125,1.728 -1.768,3.062 l 1.766,6.587 c -1.944,0.615 -3.834,1.36 -5.665,2.232 l -3.356,-5.814 c -0.69,-1.196 -2.22,-1.607 -3.415,-0.915 -1.196,0.69 -1.605,2.219 -0.915,3.415 l 3.298,5.713 c -1.74,1.087 -3.402,2.296 -4.979,3.618 l -4.551,-4.551 c -0.976,-0.977 -2.5599996,-0.977 -3.5349996,0 -0.977,0.976 -0.977,2.559 0,3.535 l 4.4279996,4.428 c -1.427,1.503 -2.75,3.119 -3.9679996,4.83 l -5.241,-3.024 c -1.198,-0.693 -2.726,-0.281 -3.41499996,0.915 -0.69,1.196 -0.281,2.725 0.91499996,3.415 l 5.08,2.933 c -0.111,0.2 -0.235,0.391 -0.343,0.593 -0.393,0.736 -0.393,1.621 0,2.356 C 13.70027,49.522 28.64927,58.491 45.00027,58.491 c 16.35,0 31.299,-8.969 39.014,-23.405 0.394,-0.736 0.394,-1.621 0,-2.357 -0.108,-0.202 -0.232,-0.393 -0.343,-0.593 l 5.079,-2.933 c 1.196,-0.69 1.605,-2.219 0.915,-3.415 -0.691,-1.197 -2.222,-1.605 -3.415,-0.915 z m -41.25,28.618 c -14.052,0 -26.937,-7.469 -33.948,-19.584 7.011,-12.114 19.896,-19.582 33.948,-19.582 14.05,0 26.936,7.469 33.948,19.582 -7.012,12.114 -19.897,19.584 -33.948,19.584 z"
     id="path2"
     style="font-variation-settings:normal;opacity:1;vector-effect:none;fill:#484848;fill-opacity:1;stroke-width:1;stroke-linecap:butt;stroke-linejoin:miter;stroke-miterlimit:4;stroke-dasharray:none;stroke-dashoffset:0;stroke-opacity:1;stop-color:#000000;stop-opacity:1" /><path
     d="m 44.999986,22.277692 c -6.413935,0 -11.631881,5.217231 -11.631881,11.629733 0,6.413935 5.217946,11.631883 11.631881,11.631883 6.413219,0 11.630449,-5.217948 11.630449,-11.631883 0,-6.412502 -5.21723,-11.629733 -11.630449,-11.629733 z"
     id="path4"
     sodipodi:nodetypes="sssss"
     style="fill:#414141;fill-opacity:1;stroke-width:0.716161" /></svg>
